<?xml version="1.0" encoding="UTF-8"?>
<svg version="1.1" xmlns="http://www.w3.org/2000/svg" width="96" height="96">
<path d="M0 0 C7.92 0 15.84 0 24 0 C24 0.99 24 1.98 24 3 C26.97 3 29.94 3 33 3 C33 3.99 33 4.98 33 6 C33.99 6 34.98 6 36 6 C36 6.99 36 7.98 36 9 C36.99 9 37.98 9 39 9 C39 12.96 39 16.92 39 21 C38.01 21 37.02 21 36 21 C36 23.97 36 26.94 36 30 C35.01 30 34.02 30 33 30 C33 36.93 33 43.86 33 51 C32.01 51 31.02 51 30 51 C30 54.96 30 58.92 30 63 C29.01 63 28.02 63 27 63 C27 63.99 27 64.98 27 66 C26.01 66 25.02 66 24 66 C24 66.99 24 67.98 24 69 C16.08 69 8.16 69 0 69 C0 68.01 0 67.02 0 66 C-0.99 66 -1.98 66 -3 66 C-3 65.01 -3 64.02 -3 63 C-3.99 63 -4.98 63 -6 63 C-6 59.04 -6 55.08 -6 51 C-6.99 51 -7.98 51 -9 51 C-9 44.07 -9 37.14 -9 30 C-9.99 30 -10.98 30 -12 30 C-12 27.03 -12 24.06 -12 21 C-12.99 21 -13.98 21 -15 21 C-15 17.04 -15 13.08 -15 9 C-14.01 9 -13.02 9 -12 9 C-12 8.01 -12 7.02 -12 6 C-11.01 6 -10.02 6 -9 6 C-9 5.01 -9 4.02 -9 3 C-6.03 3 -3.06 3 0 3 C0 2.01 0 1.02 0 0 Z " fill="#8B7866" transform="translate(36,21)"/>
<path d="M0 0 C7.92 0 15.84 0 24 0 C24 0.99 24 1.98 24 3 C26.97 3 29.94 3 33 3 C33 3.99 33 4.98 33 6 C33.99 6 34.98 6 36 6 C36 6.99 36 7.98 36 9 C36.99 9 37.98 9 39 9 C39 12.96 39 16.92 39 21 C38.01 21 37.02 21 36 21 C36 23.97 36 26.94 36 30 C35.01 30 34.02 30 33 30 C33 28.02 33 26.04 33 24 C30.03 24 27.06 24 24 24 C24 24.99 24 25.98 24 27 C16.08 27 8.16 27 0 27 C0 26.01 0 25.02 0 24 C-2.97 24 -5.94 24 -9 24 C-9 25.98 -9 27.96 -9 30 C-9.99 30 -10.98 30 -12 30 C-12 27.03 -12 24.06 -12 21 C-12.99 21 -13.98 21 -15 21 C-15 17.04 -15 13.08 -15 9 C-14.01 9 -13.02 9 -12 9 C-12 8.01 -12 7.02 -12 6 C-11.01 6 -10.02 6 -9 6 C-9 5.01 -9 4.02 -9 3 C-6.03 3 -3.06 3 0 3 C0 2.01 0 1.02 0 0 Z " fill="#282626" transform="translate(36,21)"/>
<path d="M0 0 C1.98 0 3.96 0 6 0 C6 0.99 6 1.98 6 3 C8.97 3 11.94 3 15 3 C15 3.99 15 4.98 15 6 C16.98 6 18.96 6 21 6 C21 5.01 21 4.02 21 3 C23.97 3 26.94 3 30 3 C30 2.01 30 1.02 30 0 C31.98 0 33.96 0 36 0 C36 5.94 36 11.88 36 18 C35.01 18 34.02 18 33 18 C33 18.99 33 19.98 33 21 C32.01 21 31.02 21 30 21 C30 21.99 30 22.98 30 24 C22.08 24 14.16 24 6 24 C6 23.01 6 22.02 6 21 C5.01 21 4.02 21 3 21 C3 20.01 3 19.02 3 18 C2.01 18 1.02 18 0 18 C0 12.06 0 6.12 0 0 Z " fill="#E5D9CC" transform="translate(30,66)"/>
<path d="M0 0 C2.97 0 5.94 0 9 0 C9 0.99 9 1.98 9 3 C16.92 3 24.84 3 33 3 C33 2.01 33 1.02 33 0 C35.97 0 38.94 0 42 0 C42 1.98 42 3.96 42 6 C41.01 6 40.02 6 39 6 C39 6.99 39 7.98 39 9 C38.01 9 37.02 9 36 9 C36 9.99 36 10.98 36 12 C32.04 12 28.08 12 24 12 C24 11.01 24 10.02 24 9 C22.02 9 20.04 9 18 9 C18 9.99 18 10.98 18 12 C14.04 12 10.08 12 6 12 C6 11.01 6 10.02 6 9 C5.01 9 4.02 9 3 9 C3 8.01 3 7.02 3 6 C2.01 6 1.02 6 0 6 C0 4.02 0 2.04 0 0 Z " fill="#E7DBCE" transform="translate(27,45)"/>
<path d="M0 0 C9.9 0 19.8 0 30 0 C30 0.99 30 1.98 30 3 C29.01 3 28.02 3 27 3 C27 3.99 27 4.98 27 6 C19.08 6 11.16 6 3 6 C3 5.01 3 4.02 3 3 C2.01 3 1.02 3 0 3 C0 2.01 0 1.02 0 0 Z " fill="#AAA095" transform="translate(33,84)"/>
<path d="M0 0 C7.92 0 15.84 0 24 0 C24 0.99 24 1.98 24 3 C16.08 3 8.16 3 0 3 C0 2.01 0 1.02 0 0 Z " fill="#615A53" transform="translate(36,87)"/>
<path d="M0 0 C7.92 0 15.84 0 24 0 C24 0.99 24 1.98 24 3 C16.08 3 8.16 3 0 3 C0 2.01 0 1.02 0 0 Z " fill="#BDB2A6" transform="translate(36,48)"/>
<path d="M0 0 C7.92 0 15.84 0 24 0 C24 0.99 24 1.98 24 3 C16.08 3 8.16 3 0 3 C0 2.01 0 1.02 0 0 Z " fill="#1B1B1B" transform="translate(36,21)"/>
<path d="M0 0 C0.99 0 1.98 0 3 0 C3 6.93 3 13.86 3 21 C2.01 21 1.02 21 0 21 C0 14.07 0 7.14 0 0 Z " fill="#4B443D" transform="translate(66,51)"/>
<path d="M0 0 C0.99 0 1.98 0 3 0 C3 6.93 3 13.86 3 21 C2.01 21 1.02 21 0 21 C0 14.07 0 7.14 0 0 Z " fill="#4B443D" transform="translate(27,51)"/>
<path d="M0 0 C5.94 0 11.88 0 18 0 C18 0.99 18 1.98 18 3 C12.06 3 6.12 3 0 3 C0 2.01 0 1.02 0 0 Z " fill="#4C4948" transform="translate(39,39)"/>
<path d="M0 0 C0.99 0 1.98 0 3 0 C3 3.96 3 7.92 3 12 C2.01 12 1.02 12 0 12 C0 8.04 0 4.08 0 0 Z " fill="#615A53" transform="translate(63,72)"/>
<path d="M0 0 C0.99 0 1.98 0 3 0 C3 3.96 3 7.92 3 12 C2.01 12 1.02 12 0 12 C0 8.04 0 4.08 0 0 Z " fill="#615A53" transform="translate(30,72)"/>
<path d="M0 0 C0.99 0 1.98 0 3 0 C3 3.96 3 7.92 3 12 C2.01 12 1.02 12 0 12 C0 8.04 0 4.08 0 0 Z " fill="#806F5E" transform="translate(63,54)"/>
<path d="M0 0 C0.99 0 1.98 0 3 0 C3 3.96 3 7.92 3 12 C2.01 12 1.02 12 0 12 C0 8.04 0 4.08 0 0 Z " fill="#806F5E" transform="translate(30,54)"/>
<path d="M0 0 C0.99 0 1.98 0 3 0 C3 3.96 3 7.92 3 12 C2.01 12 1.02 12 0 12 C0 8.04 0 4.08 0 0 Z " fill="#1B1B1B" transform="translate(72,30)"/>
<path d="M0 0 C0.99 0 1.98 0 3 0 C3 3.96 3 7.92 3 12 C2.01 12 1.02 12 0 12 C0 8.04 0 4.08 0 0 Z " fill="#1B1B1B" transform="translate(21,30)"/>
<path d="M0 0 C2.97 0 5.94 0 9 0 C9 0.99 9 1.98 9 3 C6.03 3 3.06 3 0 3 C0 2.01 0 1.02 0 0 Z " fill="#BDB2A6" transform="translate(60,45)"/>
<path d="M0 0 C2.97 0 5.94 0 9 0 C9 0.99 9 1.98 9 3 C6.03 3 3.06 3 0 3 C0 2.01 0 1.02 0 0 Z " fill="#BDB2A6" transform="translate(27,45)"/>
<path d="M0 0 C2.97 0 5.94 0 9 0 C9 0.99 9 1.98 9 3 C6.03 3 3.06 3 0 3 C0 2.01 0 1.02 0 0 Z " fill="#4C4948" transform="translate(57,36)"/>
<path d="M0 0 C2.97 0 5.94 0 9 0 C9 0.99 9 1.98 9 3 C6.03 3 3.06 3 0 3 C0 2.01 0 1.02 0 0 Z " fill="#4C4948" transform="translate(30,36)"/>
<path d="M0 0 C2.97 0 5.94 0 9 0 C9 0.99 9 1.98 9 3 C6.03 3 3.06 3 0 3 C0 2.01 0 1.02 0 0 Z " fill="#1B1B1B" transform="translate(60,24)"/>
<path d="M0 0 C2.97 0 5.94 0 9 0 C9 0.99 9 1.98 9 3 C6.03 3 3.06 3 0 3 C0 2.01 0 1.02 0 0 Z " fill="#1B1B1B" transform="translate(27,24)"/>
<path d="M0 0 C0.99 0 1.98 0 3 0 C3 1.98 3 3.96 3 6 C2.01 6 1.02 6 0 6 C0 4.02 0 2.04 0 0 Z " fill="#615A53" transform="translate(66,66)"/>
<path d="M0 0 C0.99 0 1.98 0 3 0 C3 1.98 3 3.96 3 6 C2.01 6 1.02 6 0 6 C0 4.02 0 2.04 0 0 Z " fill="#615A53" transform="translate(27,66)"/>
<path d="M0 0 C0.99 0 1.98 0 3 0 C3 1.98 3 3.96 3 6 C2.01 6 1.02 6 0 6 C0 4.02 0 2.04 0 0 Z " fill="#615A53" transform="translate(69,45)"/>
<path d="M0 0 C0.99 0 1.98 0 3 0 C3 1.98 3 3.96 3 6 C2.01 6 1.02 6 0 6 C0 4.02 0 2.04 0 0 Z " fill="#615A53" transform="translate(24,45)"/>
</svg>
